<svg id="Layer_1" data-name="Layer 1" xmlns="http://www.w3.org/2000/svg" viewBox="0 0 854 810"><defs><style>.cls-1{fill:#fefefe00;}.cls-2{fill:#01c15c;}.cls-3{fill:#c11fe5;}.cls-4{fill:#0164fe;}.cls-5{fill:#02c15d;}</style></defs><path class="cls-1" d="M1386.9,604q0,168.45.1,336.91c0,3.43-.67,4.1-4.09,4.1q-129-.18-258-.1c2.9-3,1.3-6.18.49-9.32q-16.8-65.42-33.65-130.83c-8.08-31.38-16.13-62.76-24.36-94.1-.5-1.91-2.53-3.41-3.85-5.11-1.55,1.29-3.15,2.53-4.62,3.91a8.52,8.52,0,0,0-1.24,2.15L980.08,851.55c-3.15,5.68-3,6.47,2.62,9.81q47.89,28.8,95.77,57.59c14.22,8.57,28.33,17.3,42.49,25.95q-291.68,0-583.37.1c-3.75,0-4.59-.85-4.59-4.59q.16-230.7.09-461.39a42,42,0,0,0,6.31,2.73q100.47,25.56,201,51c9.18,2.33,18.33,4.78,27.56,6.89,1.68.39,4.41,0,5.3-1.11s0-3.55-.29-5.39c-.09-.6-.66-1.13-1-1.7l-82.1-134.61c-2.9-4.76-4.26-5.14-9.29-2.4q-21.69,11.79-43.34,23.67L533.09,475q0-167.82-.09-335.65c0-3.53.65-4.38,4.32-4.37q137.85.19,275.71.1c-3.28,3.1-1.31,6.53-.47,9.78q25.77,100.45,51.64,200.88c2.16,8.37,4.3,16.74,6.68,25.05.38,1.33,2,3.2,3,3.23,1.44,0,3.12-1.25,4.31-2.37,1-1,1.55-2.54,2.27-3.85q14.17-25.51,28.33-51.05,24.47-44.07,48.91-88.14c3.28-5.92,3.07-6.57-2.81-10.2-.71-.43-1.42-.87-2.13-1.29q-50.7-30.46-101.39-60.92c-11.51-6.94-22.9-14.07-34.35-21.12q282.69,0,565.38-.09c3.74,0,4.59.84,4.59,4.59q-.16,231.2-.1,462.39c-1.91-1.11-3.69-2.74-5.75-3.26Q1266.64,569.54,1152,540.64c-1.91-.48-4.22.61-6.34,1,.35,2,.16,4.25,1.13,5.84q41,67.62,82.31,135.1c3.51,5.76,4.25,6,10.28,2.67q63.93-34.87,127.84-69.8C1373.89,611.77,1380.36,607.8,1386.9,604ZM774,705.4H688.57c-6.26,0-7.34,1-7.34,6.61q0,85.69.09,171.38c0,2,1,5,2.5,5.74,1.29.66,4.37-.66,5.77-2,12.47-12,24.76-24.21,37.06-36.41q64.9-64.37,129.79-128.78c3.07-3.05,6.27-6,9.15-9.22s1.5-6.57-2.66-7.2a30.38,30.38,0,0,0-4.48-.11Zm371.24-312.52h85.43c6.92,0,7.26-.36,7.26-7.43q0-83.67-.08-167.35c0-3,1.87-7.13-2.21-8.95-4.29-1.92-6.24,2.19-8.54,4.46Q1194.2,246,1161.5,278.68q-48.91,48.56-97.86,97.1c-3.31,3.28-6.72,6.48-9.8,10-.93,1-1.66,3.31-1.13,4.33.65,1.3,2.6,2.11,4.15,2.72,1,.4,2.3.08,3.47.08Z" transform="translate(-533 -135)"/><path class="cls-2" d="M1121,944.9c-14.16-8.65-28.27-17.38-42.49-25.95q-47.85-28.86-95.77-57.59c-5.57-3.34-5.77-4.13-2.62-9.81l77.65-139.95a8.52,8.52,0,0,1,1.24-2.15c1.47-1.38,3.07-2.62,4.62-3.91,1.32,1.7,3.35,3.2,3.85,5.11,8.23,31.34,16.28,62.72,24.36,94.1q16.85,65.41,33.65,130.83c.81,3.14,2.41,6.36-.49,9.32Z" transform="translate(-533 -135)"/><path class="cls-3" d="M533.09,475,637.2,418.08q21.66-11.85,43.34-23.67c5-2.74,6.39-2.36,9.29,2.4l82.1,134.61c.35.57.92,1.1,1,1.7.26,1.84,1.13,4.33.29,5.39s-3.62,1.5-5.3,1.11c-9.23-2.11-18.38-4.56-27.56-6.89q-100.49-25.47-201-51a42,42,0,0,1-6.31-2.73Z" transform="translate(-533 -135)"/><path class="cls-3" d="M817,135.1c11.45,7.05,22.84,14.18,34.35,21.12Q902,186.75,952.77,217.14c.71.42,1.42.86,2.13,1.29,5.88,3.63,6.09,4.28,2.81,10.2q-24.44,44.07-48.91,88.14-14.16,25.51-28.33,51.05c-.72,1.31-1.23,2.86-2.27,3.85-1.19,1.12-2.87,2.41-4.31,2.37-1.06,0-2.63-1.9-3-3.23-2.38-8.31-4.52-16.68-6.68-25.05q-25.85-100.42-51.64-200.88c-.84-3.25-2.81-6.68.47-9.78Z" transform="translate(-533 -135)"/><path class="cls-4" d="M1386.9,604c-6.54,3.81-13,7.78-19.65,11.42q-63.88,35-127.84,69.8c-6,3.29-6.77,3.09-10.28-2.67q-41.2-67.51-82.31-135.1c-1-1.59-.78-3.87-1.13-5.84,2.12-.35,4.43-1.44,6.34-1q114.6,28.88,229.12,58.09c2.06.52,3.84,2.15,5.75,3.26Z" transform="translate(-533 -135)"/><path class="cls-5" d="M774,705.4h84.44a30.38,30.38,0,0,1,4.48.11c4.16.63,5.48,4,2.66,7.2s-6.08,6.17-9.15,9.22q-64.89,64.39-129.79,128.78c-12.3,12.2-24.59,24.39-37.06,36.41-1.4,1.35-4.48,2.67-5.77,2-1.46-.75-2.49-3.73-2.5-5.74q-.2-85.7-.09-171.38c0-5.64,1.08-6.6,7.34-6.61Z" transform="translate(-533 -135)"/><path class="cls-4" d="M1145.25,392.88h-84.92c-1.17,0-2.46.32-3.47-.08-1.55-.61-3.5-1.42-4.15-2.72-.53-1,.2-3.29,1.13-4.33,3.08-3.49,6.49-6.69,9.8-10q48.93-48.55,97.86-97.1,32.79-32.55,65.61-65.07c2.3-2.27,4.25-6.38,8.54-4.46,4.08,1.82,2.21,5.9,2.21,8.95q.17,83.67.08,167.35c0,7.07-.34,7.43-7.26,7.43Z" transform="translate(-533 -135)"/>
</svg>