<?xml version="1.0" encoding="UTF-8" standalone="no"?>
<!DOCTYPE svg PUBLIC "-//W3C//DTD SVG 1.1//EN" "http://www.w3.org/Graphics/SVG/1.1/DTD/svg11.dtd">
<svg width="100%" height="100%" viewBox="0 0 3367 3367" version="1.1" xmlns="http://www.w3.org/2000/svg" xmlns:xlink="http://www.w3.org/1999/xlink" xml:space="preserve" xmlns:serif="http://www.serif.com/" style="fill-rule:evenodd;clip-rule:evenodd;stroke-linejoin:round;stroke-miterlimit:2;">
    <path d="M2946.81,2945.35c-207.5,207.617 -544.028,207.722 -751.639,0.222c-0.083,-0.078 -0.144,-0.15 -0.222,-0.222l-322.017,-322.011l499.178,-501.361l-187.683,-188.067l-657.472,657.478c-132.523,134.333 -345.85,144.744 -490.834,23.961c26.167,-132.789 -60.266,-261.65 -193.044,-287.817c-132.784,-26.166 -261.645,60.267 -287.811,193.045c-26.173,132.783 60.261,261.644 193.044,287.816c33.461,6.589 67.933,6.128 101.211,-1.372c237.311,209.484 593.145,210.572 831.734,2.556l323.822,323.822c313.239,310.583 818.922,308.45 1129.52,-4.794c147.489,-148.75 230.644,-349.523 231.528,-558.995l-265.756,0c0.911,140.695 -54.372,275.939 -153.561,375.739m-377.567,-2945.35l0,265.744c293.539,-1.127 532.4,235.923 533.523,529.45c0.544,141.817 -55.606,277.956 -155.956,378.15l-322.011,322.378l-503.189,-501.355l-187.683,187.694l658.194,658.556c133.456,132.577 143.534,345.127 23.239,489.739c-132.755,-26.373 -261.739,59.855 -288.128,192.594c-26.377,132.744 59.85,261.733 192.595,288.122c132.739,26.367 261.733,-59.855 288.111,-192.589c6.678,-33.561 6.233,-68.144 -1.267,-101.522c210.339,-237.128 211.417,-593.683 2.539,-832.089l323.839,-323.833c310.578,-313.228 308.433,-818.928 -4.794,-1129.51c-148.756,-147.505 -349.523,-230.661 -559.012,-231.533m-2148.12,421.85c207.5,-207.622 544.028,-207.711 751.644,-0.211c0.078,0.061 0.145,0.139 0.222,0.211l321.645,321.65l-500.633,501.372l187.694,187.678l658.556,-658.189c132.538,-133.239 344.838,-143.311 489.388,-23.233c-26.544,132.922 59.678,262.183 192.589,288.728c132.923,26.55 262.189,-59.678 288.739,-192.6c26.545,-132.912 -59.694,-262.184 -192.605,-288.723c-33.761,-6.744 -68.545,-6.305 -102.123,1.273c-237.127,-210.334 -593.683,-211.412 -832.083,-2.534l-323.839,-323.839c-313.628,-310.183 -819.328,-307.389 -1129.51,6.223c-146.895,148.533 -229.745,348.688 -230.817,557.583l265.75,-0c-0.317,-140.845 55.617,-275.978 155.378,-375.389m-155.745,2147.39c-0.311,-141.022 55.761,-276.316 155.745,-375.755l322.378,-322.011l501.366,500.994l187.695,-187.694l-658.556,-658.556c-133.461,-132.566 -143.55,-345.133 -23.239,-489.744c132.745,26.383 261.734,-59.839 288.111,-192.595c26.389,-132.744 -59.833,-261.733 -192.589,-288.116c-132.744,-26.373 -261.738,59.85 -288.111,192.594c-6.666,33.561 -6.239,68.133 1.261,101.511c-210.322,237.128 -211.416,593.684 -2.538,832.084l-323.823,323.85c-310.583,313.222 -308.45,818.927 4.789,1129.51c148.756,147.5 349.511,230.645 559.011,231.528l0,-265.739c-293.539,0 -531.5,-237.967 -531.5,-531.489l0,-0.367Zm1174.08,-885.827c0.794,134.539 110.505,242.95 245.044,242.144c134.539,-0.794 242.95,-110.511 242.139,-245.05c-0.794,-133.967 -109.617,-242.139 -243.583,-242.139c-134.539,0 -243.6,109.061 -243.611,243.584c-0,0.494 -0,0.977 0.011,1.461" style="fill:#fff;fill-rule:nonzero;"/>
</svg>
